<svg width="237" height="197" viewBox="0 0 237 197" fill="none" xmlns="http://www.w3.org/2000/svg">
    <path
        d="M52 142.694C50 138 43 138.5 43 144.5C43 150.5 52 155.5 52 155.5C52 155.5 61 150.5 61 144.5C61 138.5 54 138 52 142.694Z"
        stroke="white" stroke-width="2" stroke-linecap="round" stroke-linejoin="round" />
    <path
        d="M177.51 151.802C178.831 152.564 180.365 153 182 153C186.97 153 191 148.971 191 144C191 139.029 186.971 135 182 135C177.029 135 173 139.029 173 144C173 145.635 173.436 147.168 174.198 148.49L174.201 148.495C174.274 148.622 174.311 148.686 174.328 148.747C174.344 148.804 174.348 148.855 174.344 148.915C174.34 148.978 174.319 149.044 174.275 149.176L173.506 151.482L173.505 151.485C173.343 151.972 173.262 152.215 173.319 152.377C173.37 152.519 173.482 152.63 173.623 152.681C173.785 152.738 174.027 152.658 174.512 152.496L174.518 152.494L176.824 151.725C176.955 151.681 177.022 151.659 177.086 151.655C177.145 151.651 177.196 151.656 177.253 151.672C177.314 151.689 177.378 151.726 177.506 151.799L177.51 151.802Z"
        stroke="white" stroke-width="2" stroke-linecap="round" stroke-linejoin="round" />
    <path
        d="M25.3381 105.99C28.4946 105.815 31 103.2 31 100C31 96.6863 28.3137 94 25 94C21.6863 94 19 96.6863 19 100C19 101.181 19.3409 102.282 19.9299 103.21L19.5059 104.482L19.5052 104.484C19.3428 104.971 19.2615 105.215 19.3194 105.377C19.3698 105.518 19.4817 105.63 19.623 105.68C19.7847 105.738 20.0267 105.657 20.5107 105.496L20.5176 105.494L21.79 105.07C22.7183 105.659 23.8194 106 25.0001 106C25.1135 106 25.2262 105.997 25.3381 105.99ZM25.3381 105.99C25.3382 105.991 25.3381 105.99 25.3381 105.99ZM25.3381 105.99C26.1591 108.326 28.3841 110 31.0001 110C32.1808 110 33.2817 109.659 34.2099 109.07L35.482 109.494L35.4845 109.494C35.9717 109.657 36.2158 109.738 36.378 109.68C36.5194 109.63 36.6299 109.518 36.6803 109.377C36.7382 109.215 36.6572 108.971 36.4943 108.482L36.0703 107.21L36.2123 106.975C36.7138 106.098 36.9995 105.082 36.9995 104C36.9995 100.686 34.3137 98 31 98L30.7754 98.0041L30.6621 98.0097"
        stroke="white" stroke-width="2" stroke-linecap="round" stroke-linejoin="round" />
    <path
        d="M52 47V48C52 49.6569 50.6569 51 49 51C47.3431 51 46 49.6569 46 48V47M52 47H46M52 47H55.5905C55.973 47 56.1652 47 56.3201 46.9478C56.616 46.848 56.8475 46.6156 56.9473 46.3198C56.9997 46.1643 56.9997 45.9715 56.9997 45.5859C56.9997 45.4172 56.9995 45.3329 56.9863 45.2524C56.9614 45.1004 56.9024 44.9563 56.8126 44.8312C56.7651 44.7651 56.7047 44.7048 56.5858 44.5858L56.1963 44.1963C56.0706 44.0706 56 43.9001 56 43.7224V40C56 36.134 52.866 33 49 33C45.134 33 42 36.134 42 40V43.7224C42 43.9002 41.9292 44.0706 41.8036 44.1963L41.4141 44.5858C41.2948 44.7051 41.235 44.765 41.1875 44.8312C41.0977 44.9564 41.0381 45.1004 41.0132 45.2524C41 45.3329 41 45.4172 41 45.586C41 45.9715 41 46.1642 41.0525 46.3197C41.1523 46.6156 41.3848 46.848 41.6807 46.9478C41.8356 47 42.027 47 42.4096 47H46M55.0186 32.0137C56.3978 33.053 57.4843 34.4318 58.1724 36.0157M42.982 32.0137C41.6028 33.053 40.5162 34.4318 39.8281 36.0157"
        stroke="white" stroke-width="2" stroke-linecap="round" stroke-linejoin="round" />
    <path
        d="M78 86.5L84 89.5M84 80.5L78 83.5M87 94C85.3431 94 84 92.6569 84 91C84 89.3431 85.3431 88 87 88C88.6569 88 90 89.3431 90 91C90 92.6569 88.6569 94 87 94ZM75 88C73.3431 88 72 86.6569 72 85C72 83.3431 73.3431 82 75 82C76.6569 82 78 83.3431 78 85C78 86.6569 76.6569 88 75 88ZM87 82C85.3431 82 84 80.6569 84 79C84 77.3431 85.3431 76 87 76C88.6569 76 90 77.3431 90 79C90 80.6569 88.6569 82 87 82Z"
        stroke="white" stroke-width="2" stroke-linecap="round" stroke-linejoin="round" />
    <path
        d="M176 96L182 102M171 98C167.134 98 164 94.866 164 91C164 87.134 167.134 84 171 84C174.866 84 178 87.134 178 91C178 94.866 174.866 98 171 98Z"
        stroke="white" stroke-width="2" stroke-linecap="round" stroke-linejoin="round" />
    <path
        d="M115 117.923C115 122.775 119.244 126.787 121.123 128.325C121.392 128.545 121.528 128.657 121.729 128.713C121.885 128.757 122.115 128.757 122.271 128.713C122.472 128.657 122.607 128.546 122.877 128.325C124.756 126.787 129 122.775 129 117.923C129 116.087 128.262 114.326 126.95 113.028C125.637 111.729 123.857 111 122 111C120.144 111 118.363 111.73 117.05 113.028C115.737 114.326 115 116.087 115 117.923Z"
        stroke="white" stroke-width="2" stroke-linecap="round" stroke-linejoin="round" />
    <path
        d="M120 117C120 118.105 120.895 119 122 119C123.105 119 124 118.105 124 117C124 115.895 123.105 115 122 115C120.895 115 120 115.895 120 117Z"
        stroke="white" stroke-width="2" stroke-linecap="round" stroke-linejoin="round" />
    <path
        d="M126 56.0002V50.4522C126 49.9179 126 49.6506 125.935 49.4019C125.877 49.1816 125.782 48.9731 125.655 48.7846C125.51 48.572 125.31 48.3957 124.907 48.0438L120.107 43.8438C119.361 43.1905 118.988 42.8641 118.567 42.7398C118.197 42.6303 117.803 42.6303 117.432 42.7398C117.013 42.864 116.64 43.1901 115.894 43.8424L111.093 48.0438C110.691 48.3957 110.49 48.572 110.346 48.7846C110.218 48.9731 110.123 49.1816 110.065 49.4019C110 49.6506 110 49.9179 110 50.4522V56.0002C110 56.932 110 57.3978 110.152 57.7654C110.355 58.2554 110.744 58.6452 111.234 58.8482C111.602 59.0005 112.068 59.0005 113 59.0005C113.932 59.0005 114.398 59.0005 114.766 58.8482C115.256 58.6452 115.645 58.2555 115.848 57.7654C116 57.3979 116 56.932 116 56.0001V55.0001C116 53.8955 116.895 53.0001 118 53.0001C119.105 53.0001 120 53.8955 120 55.0001V56.0001C120 56.932 120 57.3979 120.152 57.7654C120.355 58.2555 120.744 58.6452 121.234 58.8482C121.602 59.0005 122.068 59.0005 123 59.0005C123.932 59.0005 124.398 59.0005 124.766 58.8482C125.256 58.6452 125.645 58.2554 125.848 57.7654C126 57.3978 126 56.932 126 56.0002Z"
        stroke="white" stroke-width="2" stroke-linecap="round" stroke-linejoin="round" />
    <path
        d="M174.308 38.6923L179.154 33.8462M184.111 30.8887L180.021 44.1833C179.654 45.3747 179.471 45.9707 179.154 46.1683C178.88 46.3396 178.541 46.3683 178.242 46.2443C177.898 46.1014 177.618 45.5433 177.06 44.428L174.469 39.2461C174.381 39.0691 174.337 38.981 174.277 38.9043C174.225 38.8363 174.165 38.7749 174.096 38.7225C174.022 38.6647 173.935 38.6214 173.766 38.5369L168.572 35.9399C167.457 35.3823 166.899 35.1032 166.756 34.7588C166.632 34.4601 166.66 34.1202 166.832 33.846C167.029 33.5297 167.625 33.346 168.817 32.9793L182.112 28.8887C183.049 28.6004 183.517 28.4563 183.834 28.5725C184.109 28.6737 184.327 28.8908 184.428 29.1665C184.544 29.4828 184.4 29.9513 184.112 30.8873L184.111 30.8887Z"
        stroke="white" stroke-width="2" stroke-linecap="round" stroke-linejoin="round" />
    <path
        d="M227.533 97.5C232.001 97.5 235.566 100.888 235.566 105C235.566 109.112 232.001 112.5 227.533 112.5C223.066 112.5 219.5 109.112 219.5 105C219.5 100.888 223.066 97.5001 227.533 97.5Z"
        stroke="white" />
    <path
        d="M121.533 173.5C126.001 173.5 129.566 176.888 129.566 181C129.566 185.112 126.001 188.5 121.533 188.5C117.066 188.5 113.5 185.112 113.5 181C113.5 176.888 117.066 173.5 121.533 173.5Z"
        stroke="white" />
    <path
        d="M101.533 0.5C106.001 0.5 109.566 3.88777 109.566 8C109.566 12.1122 106.001 15.5 101.533 15.5C97.0657 15.4999 93.5 12.1122 93.5 8C93.5 3.88781 97.0657 0.500066 101.533 0.5Z"
        stroke="white" />
    <path
        d="M8.5332 180.5C13.0008 180.5 16.5664 183.888 16.5664 188C16.5664 192.112 13.0008 195.5 8.5332 195.5C4.06569 195.5 0.5 192.112 0.5 188C0.5 183.888 4.06569 180.5 8.5332 180.5Z"
        stroke="white" />
    <path
        d="M8.5332 23.5C13.0008 23.5 16.5664 26.8878 16.5664 31C16.5664 35.1122 13.0008 38.5 8.5332 38.5C4.06569 38.4999 0.5 35.1122 0.5 31C0.5 26.8878 4.06569 23.5001 8.5332 23.5Z"
        stroke="white" />
    <path
        d="M210.533 181.5C215.001 181.5 218.566 184.888 218.566 189C218.566 193.112 215.001 196.5 210.533 196.5C206.066 196.5 202.5 193.112 202.5 189C202.5 184.888 206.066 181.5 210.533 181.5Z"
        stroke="white" />
    <path
        d="M210.533 13.5C215.001 13.5 218.566 16.8878 218.566 21C218.566 25.1122 215.001 28.5 210.533 28.5C206.066 28.4999 202.5 25.1122 202.5 21C202.5 16.8878 206.066 13.5001 210.533 13.5Z"
        stroke="white" />
</svg>
