<svg width="25" height="24" viewBox="0 0 25 24" fill="none" xmlns="http://www.w3.org/2000/svg">
    <path d="M15.75 17V18C15.75 19.6569 14.4069 21 12.75 21C11.0931 21 9.75 19.6569 9.75 18V17M15.75 17H9.75M15.75 17H19.3405C19.723 17 19.9152 17 20.0701 16.9478C20.366 16.848 20.5975 16.6156 20.6973 16.3198C20.7497 16.1643 20.7497 15.9715 20.7497 15.5859C20.7497 15.4172 20.7495 15.3329 20.7363 15.2524C20.7114 15.1004 20.6524 14.9563 20.5626 14.8312C20.5151 14.7651 20.4547 14.7048 20.3358 14.5858L19.9463 14.1963C19.8206 14.0706 19.75 13.9001 19.75 13.7224V10C19.75 6.134 16.616 2.99999 12.75 3C8.88401 3.00001 5.75 6.13401 5.75 10V13.7224C5.75 13.9002 5.67924 14.0706 5.55357 14.1963L5.16406 14.5858C5.04477 14.7051 4.98504 14.765 4.9375 14.8312C4.84766 14.9564 4.78815 15.1004 4.7632 15.2524C4.75 15.3329 4.75 15.4172 4.75 15.586C4.75 15.9715 4.75 16.1642 4.80245 16.3197C4.90225 16.6156 5.1348 16.848 5.43066 16.9478C5.58556 17 5.77701 17 6.15956 17H9.75M18.7686 2.01367C20.1478 3.05299 21.2343 4.43177 21.9224 6.01574M6.73197 2.01367C5.35275 3.05299 4.2662 4.43177 3.57812 6.01574" stroke="#252525" stroke-linecap="round" stroke-linejoin="round"/>
</svg>
