<svg width="389" height="446" viewBox="0 0 389 446" fill="none" xmlns="http://www.w3.org/2000/svg">
    <path d="M-3 203.46C-3 179.567 6.82401 156.726 24.1679 140.292V140.292C31.988 132.883 41.1159 126.99 51.0875 122.913L67.0241 116.397C80.9524 110.702 95.5434 106.787 110.452 104.745L119.208 103.545C142.516 100.351 166.221 101.698 189.017 107.51L191.697 108.193C211.726 113.3 232.527 114.657 253.05 112.194V112.194C277.065 109.313 300.172 101.266 320.781 88.6058L323.24 87.0953C330.399 82.6981 337.144 77.6619 343.395 72.0484V72.0484C357.645 59.2504 369.101 43.6496 377.046 26.2219L389 0V449H-3V203.46Z" fill="white"/>
</svg>
