<svg width="24" height="24" viewBox="0 0 24 24" fill="none" xmlns="http://www.w3.org/2000/svg">
    <path d="M12 1.5C13.2512 1.5 14.3033 1.93516 15.1846 2.81641C16.0658 3.69766 16.5006 4.74966 16.5 6V8.5H18C18.4162 8.5 18.7605 8.64234 19.0596 8.94141C19.3585 9.24037 19.5004 9.58404 19.5 9.99902V20C19.5 20.4163 19.3579 20.7606 19.0596 21.0596C18.7616 21.358 18.4176 21.5004 18.001 21.5H6C5.58354 21.5 5.23963 21.3578 4.94141 21.0596C4.68039 20.7986 4.53854 20.5021 4.50684 20.1523L4.5 19.999V10C4.5 9.58381 4.64261 9.2397 4.94141 8.94141C5.20313 8.68025 5.49936 8.53859 5.84766 8.50684L6.00098 8.5H7.5V6C7.5 4.74885 7.93526 3.69695 8.81641 2.81641C9.64276 1.99067 10.6191 1.55633 11.7686 1.50488L12 1.5ZM5.5 20.5H18.5V9.5H5.5V20.5ZM11.999 13.5C12.4165 13.5005 12.7613 13.6432 13.0596 13.9414C13.3578 14.2396 13.5 14.5835 13.5 15V15.001C13.5004 15.4176 13.358 15.7616 13.0596 16.0596C12.7606 16.3579 12.4163 16.5 12 16.5H11.999C11.584 16.5004 11.2404 16.3585 10.9414 16.0596C10.6426 15.7607 10.5002 15.4167 10.5 15.001C10.5005 14.5853 10.6428 14.2406 10.9414 13.9414C11.2395 13.6428 11.5833 13.5002 11.999 13.5ZM12 2.5C11.0356 2.5 10.1997 2.84332 9.52148 3.52148C8.84332 4.19965 8.5 5.03557 8.5 6V8.5H15.5V6C15.5 5.03557 15.1567 4.19965 14.4785 3.52148C13.8003 2.84332 12.9644 2.5 12 2.5Z" fill="#F8F8F8" stroke="#1E60A2"/>
</svg>
